<svg width="175" height="57" viewBox="0 0 175 57" fill="none" xmlns="http://www.w3.org/2000/svg">
<path d="M0 20.5467V49.0489C0 54.7519 4.02916 56.8222 6.73773 56.8222H40.4264V51.64H6.76468C5.72707 51.6089 4.49182 51.1373 4.49182 49.0489C4.49182 46.9605 5.72707 46.4889 6.76468 46.4578H40.4264V10.1822C40.4264 7.32423 38.4118 5 35.9345 5H6.73773C4.02916 5 0 7.0703 0 12.7733V20.5467ZM6.73773 10.1822H35.9345V41.2756H4.49182V12.7733C4.49182 10.6849 5.72707 10.2133 6.73773 10.1822Z" fill="#3E3939"/>
<path d="M20.2064 36.0934L27.7302 27.5712C28.1941 27.0565 28.5631 26.4391 28.8152 25.7558C29.0673 25.0726 29.1972 24.3377 29.1972 23.5952C29.1972 22.8526 29.0673 22.1177 28.8152 21.4345C28.5631 20.7513 28.1941 20.1338 27.7302 19.6191C26.795 18.5542 25.5338 17.9571 24.2198 17.9571C22.9058 17.9571 21.6447 18.5542 20.7095 19.6191L20.2064 20.184L19.7033 19.6165C18.7685 18.5518 17.5077 17.9547 16.1941 17.9547C14.8804 17.9547 13.6196 18.5518 12.6848 19.6165C12.2209 20.1312 11.8519 20.7487 11.5998 21.4319C11.3477 22.1151 11.2178 22.85 11.2178 23.5926C11.2178 24.3351 11.3477 25.07 11.5998 25.7532C11.8519 26.4365 12.2209 27.0539 12.6848 27.5687L20.2064 36.0934Z" fill="#E11E1E"/>
<path d="M50.0635 9.83984C50.8122 9.83984 51.5758 9.87728 52.3545 9.95215C53.1406 10.0195 53.9043 10.1431 54.6455 10.3228C55.3867 10.495 56.083 10.7383 56.7344 11.0527C57.3857 11.3597 57.9548 11.7528 58.4414 12.2319C58.9355 12.7036 59.3249 13.2726 59.6094 13.939C59.8939 14.5978 60.0361 15.3727 60.0361 16.2637C60.0361 17.4915 59.8153 18.5285 59.3735 19.3745C58.9318 20.2131 58.3291 20.8906 57.5654 21.4072C57.8874 21.9014 58.1644 22.418 58.3965 22.957C58.6286 23.4961 58.8158 24.0202 58.958 24.5293C59.1077 25.0309 59.2163 25.4989 59.2837 25.9331C59.3511 26.3674 59.3848 26.7305 59.3848 27.0225H56.5098C56.5098 26.5658 56.4723 26.1353 56.3975 25.731C56.3226 25.3192 56.2178 24.9299 56.083 24.563C55.9482 24.1886 55.791 23.8368 55.6113 23.5073C55.4391 23.1779 55.252 22.8597 55.0498 22.5527C54.3385 22.7549 53.5861 22.9009 52.7925 22.9907C51.9989 23.0731 51.1715 23.1143 50.3105 23.1143C49.7939 23.1143 49.2699 23.0993 48.7383 23.0693C48.2067 23.0394 47.6826 23.002 47.166 22.957V26.9775H44.3809V10.4912C44.5456 10.4388 44.8076 10.3752 45.167 10.3003C45.5339 10.2254 45.9644 10.1543 46.4585 10.0869C46.9601 10.0195 47.5179 9.96338 48.1318 9.91846C48.7458 9.86605 49.3896 9.83984 50.0635 9.83984ZM50.8721 12.3105C50.3779 12.3105 49.9062 12.333 49.457 12.3779C49.0078 12.4154 48.6147 12.4603 48.2778 12.5127C47.8735 12.5726 47.5029 12.64 47.166 12.7148V20.3965C47.4056 20.4489 47.6714 20.4938 47.9634 20.5312C48.2104 20.5687 48.4987 20.6024 48.8281 20.6323C49.1576 20.6548 49.5094 20.666 49.8838 20.666C50.3704 20.666 50.8833 20.6548 51.4224 20.6323C51.9689 20.6024 52.508 20.5387 53.0396 20.4414C53.5786 20.3441 54.0877 20.2018 54.5669 20.0146C55.0535 19.82 55.4803 19.5654 55.8472 19.251C56.2215 18.929 56.5173 18.5322 56.7344 18.0605C56.959 17.5889 57.0713 17.0199 57.0713 16.3535C57.0713 15.7995 56.9814 15.3128 56.8018 14.8936C56.6221 14.4743 56.3787 14.1149 56.0718 13.8154C55.7648 13.516 55.4054 13.2689 54.9937 13.0742C54.5894 12.8796 54.1551 12.7261 53.6909 12.6138C53.2342 12.5015 52.7625 12.4229 52.2759 12.3779C51.7967 12.333 51.3288 12.3105 50.8721 12.3105ZM70.6152 14.1973C70.9971 14.1973 71.4575 14.216 71.9966 14.2534C72.5356 14.2909 73.0934 14.3582 73.6699 14.4556C74.2539 14.5454 74.8304 14.6764 75.3994 14.8486C75.9684 15.0133 76.4775 15.2267 76.9268 15.4888C77.3835 15.7508 77.7503 16.069 78.0273 16.4434C78.3118 16.8102 78.4541 17.2445 78.4541 17.7461V21.542H65.584V24.417C66.4899 24.5443 67.3621 24.6341 68.2007 24.6865C69.0392 24.7314 69.8441 24.7539 70.6152 24.7539C71.7907 24.7539 72.8538 24.709 73.8047 24.6191C74.763 24.5293 75.5903 24.4282 76.2866 24.3159C77.0877 24.1886 77.8102 24.0426 78.4541 23.8779V26.3711C77.0316 26.5957 75.6577 26.7567 74.3325 26.854C73.0148 26.9513 71.7757 27 70.6152 27C69.4473 27 68.3879 26.9701 67.437 26.9102C66.4862 26.8428 65.6701 26.7679 64.9888 26.6855C64.1951 26.5957 63.4801 26.4909 62.8438 26.3711V17.7461C62.8438 17.2445 62.9673 16.8102 63.2144 16.4434C63.4614 16.069 63.7909 15.7508 64.2026 15.4888C64.6144 15.2267 65.0861 15.0133 65.6177 14.8486C66.1567 14.6764 66.7145 14.5454 67.291 14.4556C67.8675 14.3582 68.4403 14.2909 69.0093 14.2534C69.5858 14.216 70.1211 14.1973 70.6152 14.1973ZM65.584 19.7451H75.6689V18.4424C75.6689 18.1354 75.5941 17.8734 75.4443 17.6562C75.2946 17.4316 75.0924 17.2445 74.8379 17.0947C74.5908 16.945 74.2988 16.8252 73.9619 16.7354C73.6325 16.638 73.2881 16.5669 72.9287 16.522C72.5693 16.4696 72.2062 16.4359 71.8394 16.4209C71.48 16.4059 71.1393 16.3984 70.8174 16.3984C70.4805 16.3984 70.1174 16.4059 69.728 16.4209C69.3462 16.4359 68.9606 16.4696 68.5713 16.522C68.182 16.5744 67.8076 16.6493 67.4482 16.7466C67.0889 16.8364 66.7707 16.96 66.4937 17.1172C66.2166 17.2669 65.9958 17.4541 65.8311 17.6787C65.6663 17.8958 65.584 18.1579 65.584 18.4648V19.7451ZM84.9229 14.1523C84.8779 14.5042 84.8517 14.8711 84.8442 15.2529C84.8368 15.6273 84.833 16.0016 84.833 16.376C84.833 17.3792 84.8929 18.2926 85.0127 19.1162C85.14 19.9398 85.3496 20.6885 85.6416 21.3623C85.9336 22.0361 86.3154 22.6463 86.7871 23.1929C87.2663 23.7319 87.8577 24.2223 88.5615 24.6641C89.2578 24.2223 89.8418 23.7319 90.3135 23.1929C90.7926 22.6463 91.1782 22.0361 91.4702 21.3623C91.7622 20.6885 91.9718 19.9398 92.0991 19.1162C92.2264 18.2926 92.29 17.3792 92.29 16.376C92.29 16.0016 92.2826 15.6273 92.2676 15.2529C92.2526 14.8711 92.2227 14.5042 92.1777 14.1523C92.8441 14.1898 93.4355 14.2384 93.9521 14.2983C94.4688 14.3582 94.9105 14.4181 95.2773 14.478C95.6966 14.5529 96.071 14.624 96.4004 14.6914V17.2969C96.1758 17.1995 95.9661 17.1247 95.7715 17.0723C95.5843 17.0124 95.4196 16.9674 95.2773 16.9375C95.1126 16.9076 94.9629 16.8851 94.8281 16.8701C94.7982 17.8359 94.7308 18.7194 94.626 19.5205C94.5286 20.3141 94.3752 21.0404 94.1655 21.6992C93.9634 22.3581 93.7013 22.9608 93.3794 23.5073C93.0575 24.0464 92.6681 24.5518 92.2114 25.0234C91.7622 25.4951 91.2344 25.9406 90.6279 26.3599C90.0215 26.7716 89.3327 27.1797 88.5615 27.584C87.7904 27.1797 87.1016 26.7716 86.4951 26.3599C85.8887 25.9406 85.3571 25.4951 84.9004 25.0234C84.4437 24.5518 84.0544 24.0464 83.7324 23.5073C83.4105 22.9608 83.1447 22.3581 82.9351 21.6992C82.7329 21.0404 82.5757 20.3141 82.4634 19.5205C82.3586 18.7269 82.2949 17.8434 82.2725 16.8701C82.1377 16.8851 81.988 16.9076 81.8232 16.9375C81.681 16.9674 81.5125 17.0124 81.3179 17.0723C81.1307 17.1247 80.9248 17.1995 80.7002 17.2969V14.6914C81.0146 14.624 81.3853 14.5529 81.812 14.478C82.1714 14.4181 82.6131 14.3582 83.1372 14.2983C83.6613 14.2384 84.2565 14.1898 84.9229 14.1523ZM102.51 27H99.6572V14.1973H102.51V27ZM101.095 9.75C101.649 9.75 102.087 9.84359 102.409 10.0308C102.731 10.2104 102.892 10.4987 102.892 10.8955V11.457C102.892 11.8164 102.731 12.0747 102.409 12.2319C102.087 12.3892 101.649 12.4678 101.095 12.4678C100.563 12.4678 100.133 12.3892 99.8032 12.2319C99.4813 12.0747 99.3203 11.8164 99.3203 11.457V10.8955C99.3203 10.4987 99.4813 10.2104 99.8032 10.0308C100.133 9.84359 100.563 9.75 101.095 9.75ZM114.526 14.1973C114.908 14.1973 115.369 14.216 115.908 14.2534C116.447 14.2909 117.005 14.3582 117.581 14.4556C118.165 14.5454 118.742 14.6764 119.311 14.8486C119.88 15.0133 120.389 15.2267 120.838 15.4888C121.295 15.7508 121.661 16.069 121.938 16.4434C122.223 16.8102 122.365 17.2445 122.365 17.7461V21.542H109.495V24.417C110.401 24.5443 111.273 24.6341 112.112 24.6865C112.95 24.7314 113.755 24.7539 114.526 24.7539C115.702 24.7539 116.765 24.709 117.716 24.6191C118.674 24.5293 119.501 24.4282 120.198 24.3159C120.999 24.1886 121.721 24.0426 122.365 23.8779V26.3711C120.943 26.5957 119.569 26.7567 118.244 26.854C116.926 26.9513 115.687 27 114.526 27C113.358 27 112.299 26.9701 111.348 26.9102C110.397 26.8428 109.581 26.7679 108.9 26.6855C108.106 26.5957 107.391 26.4909 106.755 26.3711V17.7461C106.755 17.2445 106.878 16.8102 107.125 16.4434C107.373 16.069 107.702 15.7508 108.114 15.4888C108.526 15.2267 108.997 15.0133 109.529 14.8486C110.068 14.6764 110.626 14.5454 111.202 14.4556C111.779 14.3582 112.351 14.2909 112.92 14.2534C113.497 14.216 114.032 14.1973 114.526 14.1973ZM109.495 19.7451H119.58V18.4424C119.58 18.1354 119.505 17.8734 119.355 17.6562C119.206 17.4316 119.004 17.2445 118.749 17.0947C118.502 16.945 118.21 16.8252 117.873 16.7354C117.544 16.638 117.199 16.5669 116.84 16.522C116.48 16.4696 116.117 16.4359 115.75 16.4209C115.391 16.4059 115.05 16.3984 114.729 16.3984C114.392 16.3984 114.028 16.4059 113.639 16.4209C113.257 16.4359 112.872 16.4696 112.482 16.522C112.093 16.5744 111.719 16.6493 111.359 16.7466C111 16.8364 110.682 16.96 110.405 17.1172C110.128 17.2669 109.907 17.4541 109.742 17.6787C109.577 17.8958 109.495 18.1579 109.495 18.4648V19.7451ZM128.879 14.1523C128.812 14.6839 128.752 15.2155 128.699 15.7471C128.654 16.2786 128.632 16.8327 128.632 17.4092C128.632 18.098 128.662 18.7793 128.722 19.4531C128.782 20.127 128.909 20.7746 129.104 21.396C129.306 22.0099 129.594 22.5939 129.968 23.1479C130.35 23.702 130.863 24.2074 131.507 24.6641C131.874 24.432 132.166 24.1512 132.383 23.8218C132.607 23.4849 132.783 23.1255 132.911 22.7437C133.038 22.3618 133.128 21.9725 133.18 21.5757C133.24 21.1789 133.289 20.7933 133.326 20.4189V17.6787H135.572V20.4189C135.602 20.7933 135.647 21.1789 135.707 21.5757C135.767 21.9725 135.861 22.3618 135.988 22.7437C136.115 23.1255 136.287 23.4849 136.504 23.8218C136.729 24.1512 137.017 24.432 137.369 24.6641C138.013 24.2074 138.526 23.702 138.908 23.1479C139.29 22.5939 139.582 22.0099 139.784 21.396C139.986 20.7746 140.117 20.127 140.177 19.4531C140.237 18.7793 140.267 18.098 140.267 17.4092C140.267 16.8327 140.24 16.2786 140.188 15.7471C140.143 15.2155 140.079 14.6839 139.997 14.1523C140.678 14.1898 141.281 14.2384 141.805 14.2983C142.329 14.3582 142.775 14.4181 143.142 14.478C143.568 14.5454 143.943 14.6165 144.265 14.6914V17.2969C144.07 17.1921 143.883 17.1134 143.703 17.061C143.531 17.0011 143.377 16.9562 143.243 16.9263C143.085 16.8963 142.939 16.8776 142.805 16.8701C142.805 17.9557 142.756 18.929 142.659 19.79C142.561 20.6436 142.415 21.411 142.221 22.0923C142.026 22.7736 141.779 23.38 141.479 23.9116C141.188 24.4432 140.839 24.9261 140.435 25.3604C140.031 25.7871 139.574 26.1802 139.065 26.5396C138.556 26.8989 137.991 27.2471 137.369 27.584C136.658 27.1797 136.07 26.7267 135.606 26.2251C135.142 25.7235 134.756 25.1507 134.449 24.5068C134.157 25.1507 133.775 25.7235 133.304 26.2251C132.84 26.7267 132.241 27.1797 131.507 27.584C130.893 27.2471 130.331 26.8989 129.822 26.5396C129.321 26.1802 128.868 25.7871 128.463 25.3604C128.067 24.9261 127.722 24.4432 127.43 23.9116C127.138 23.38 126.895 22.7736 126.7 22.0923C126.506 21.411 126.36 20.6436 126.262 19.79C126.165 18.929 126.116 17.9557 126.116 16.8701C125.974 16.8776 125.824 16.8963 125.667 16.9263C125.525 16.9562 125.364 17.0011 125.184 17.061C125.004 17.1134 124.813 17.1921 124.611 17.2969V14.6914C124.933 14.6165 125.311 14.5454 125.746 14.478C126.112 14.4181 126.558 14.3582 127.082 14.2983C127.614 14.2384 128.213 14.1898 128.879 14.1523Z" fill="#3E3939"/>
<path d="M46.8506 42.0469L50.1045 50.168L53.3584 42.0469H55.0605V52H53.748V48.124L53.8711 43.9404L50.6035 52H49.5986L46.3379 43.9609L46.4678 48.124V52H45.1553V42.0469H46.8506ZM56.8447 48.2334C56.8447 47.5088 56.986 46.8571 57.2686 46.2783C57.5557 45.6995 57.9521 45.2529 58.458 44.9385C58.9684 44.624 59.5495 44.4668 60.2012 44.4668C61.2083 44.4668 62.0218 44.8154 62.6416 45.5127C63.266 46.21 63.5781 47.1374 63.5781 48.2949V48.3838C63.5781 49.1038 63.4391 49.751 63.1611 50.3252C62.8877 50.8949 62.4935 51.3392 61.9785 51.6582C61.4681 51.9772 60.8802 52.1367 60.2148 52.1367C59.2122 52.1367 58.3988 51.7881 57.7744 51.0908C57.1546 50.3936 56.8447 49.4707 56.8447 48.3223V48.2334ZM58.1162 48.3838C58.1162 49.2041 58.3053 49.8626 58.6836 50.3594C59.0664 50.8561 59.5768 51.1045 60.2148 51.1045C60.8574 51.1045 61.3678 50.8538 61.7461 50.3525C62.1243 49.8467 62.3135 49.1403 62.3135 48.2334C62.3135 47.4222 62.1198 46.766 61.7324 46.2646C61.3496 45.7588 60.8392 45.5059 60.2012 45.5059C59.5768 45.5059 59.0732 45.7542 58.6904 46.251C58.3076 46.7477 58.1162 47.4587 58.1162 48.3838ZM67.4951 50.2842L69.3271 44.6035H70.6191L67.9668 52H67.0029L64.3232 44.6035H65.6152L67.4951 50.2842ZM73.21 52H71.9453V44.6035H73.21V52ZM71.8428 42.6416C71.8428 42.4365 71.9043 42.2633 72.0273 42.1221C72.1549 41.9808 72.3418 41.9102 72.5879 41.9102C72.834 41.9102 73.0208 41.9808 73.1484 42.1221C73.276 42.2633 73.3398 42.4365 73.3398 42.6416C73.3398 42.8467 73.276 43.0176 73.1484 43.1543C73.0208 43.291 72.834 43.3594 72.5879 43.3594C72.3418 43.3594 72.1549 43.291 72.0273 43.1543C71.9043 43.0176 71.8428 42.8467 71.8428 42.6416ZM78.3096 52.1367C77.307 52.1367 76.4912 51.8086 75.8623 51.1523C75.2334 50.4915 74.9189 49.6097 74.9189 48.5068V48.2744C74.9189 47.5407 75.0579 46.8867 75.3359 46.3125C75.6185 45.7337 76.0104 45.2826 76.5117 44.959C77.0176 44.6309 77.5645 44.4668 78.1523 44.4668C79.1139 44.4668 79.8613 44.7835 80.3945 45.417C80.9277 46.0505 81.1943 46.9574 81.1943 48.1377V48.6641H76.1836C76.2018 49.3932 76.4137 49.9834 76.8193 50.4346C77.2295 50.8812 77.749 51.1045 78.3779 51.1045C78.8245 51.1045 79.2028 51.0133 79.5127 50.8311C79.8226 50.6488 80.0938 50.4072 80.3262 50.1064L81.0986 50.708C80.4788 51.6605 79.5492 52.1367 78.3096 52.1367ZM78.1523 45.5059C77.6419 45.5059 77.2135 45.6927 76.8672 46.0664C76.5208 46.4355 76.3066 46.9551 76.2246 47.625H79.9297V47.5293C79.8932 46.8867 79.7201 46.39 79.4102 46.0391C79.1003 45.6836 78.681 45.5059 78.1523 45.5059ZM86.9707 50.0381C86.9707 49.6963 86.8408 49.432 86.5811 49.2451C86.3258 49.0537 85.877 48.8896 85.2344 48.7529C84.5964 48.6162 84.0882 48.4521 83.71 48.2607C83.3363 48.0693 83.0583 47.8415 82.876 47.5771C82.6982 47.3128 82.6094 46.9984 82.6094 46.6338C82.6094 46.0277 82.8646 45.515 83.375 45.0957C83.89 44.6764 84.5462 44.4668 85.3438 44.4668C86.1823 44.4668 86.8613 44.6833 87.3809 45.1162C87.9049 45.5492 88.167 46.1029 88.167 46.7773H86.8955C86.8955 46.431 86.7474 46.1325 86.4512 45.8818C86.1595 45.6312 85.7904 45.5059 85.3438 45.5059C84.8835 45.5059 84.5234 45.6061 84.2637 45.8066C84.0039 46.0072 83.874 46.2692 83.874 46.5928C83.874 46.8981 83.9948 47.1283 84.2363 47.2832C84.4779 47.4382 84.9131 47.5863 85.542 47.7275C86.1755 47.8688 86.6882 48.0374 87.0801 48.2334C87.472 48.4294 87.7614 48.6663 87.9482 48.9443C88.1396 49.2178 88.2354 49.5527 88.2354 49.9492C88.2354 50.61 87.971 51.141 87.4424 51.542C86.9137 51.9385 86.2279 52.1367 85.3848 52.1367C84.7923 52.1367 84.2682 52.0319 83.8125 51.8223C83.3568 51.6126 82.999 51.321 82.7393 50.9473C82.484 50.569 82.3564 50.1611 82.3564 49.7236H83.6211C83.6439 50.1475 83.8125 50.4847 84.127 50.7354C84.446 50.9814 84.8652 51.1045 85.3848 51.1045C85.8633 51.1045 86.2461 51.0088 86.5332 50.8174C86.8249 50.6214 86.9707 50.3617 86.9707 50.0381ZM93.0889 49.3271C93.0889 48.8486 93.221 48.4089 93.4854 48.0078C93.7542 47.6068 94.2646 47.1396 95.0166 46.6064C94.5745 46.0687 94.2783 45.6357 94.1279 45.3076C93.9775 44.9795 93.9023 44.6536 93.9023 44.3301C93.9023 43.5736 94.1257 42.9811 94.5723 42.5527C95.0189 42.1243 95.625 41.9102 96.3906 41.9102C97.0742 41.9102 97.6393 42.1107 98.0859 42.5117C98.5326 42.9082 98.7559 43.4095 98.7559 44.0156C98.7559 44.4167 98.6533 44.7881 98.4482 45.1299C98.2477 45.4671 97.8945 45.8226 97.3887 46.1963L96.6572 46.7363L98.8721 49.3818C99.182 48.7894 99.3369 48.1309 99.3369 47.4062H100.479C100.479 48.5684 100.198 49.5322 99.6377 50.2979L101.06 52H99.542L98.8789 51.2139C98.5417 51.5146 98.1452 51.7448 97.6895 51.9043C97.2383 52.0592 96.778 52.1367 96.3086 52.1367C95.3379 52.1367 94.5586 51.8792 93.9707 51.3643C93.3828 50.8493 93.0889 50.1702 93.0889 49.3271ZM96.3086 51.1045C96.9785 51.1045 97.5915 50.8493 98.1475 50.3389L95.7207 47.4336L95.4951 47.5977C94.734 48.1582 94.3535 48.7347 94.3535 49.3271C94.3535 49.8649 94.5267 50.2956 94.873 50.6191C95.224 50.9427 95.7025 51.1045 96.3086 51.1045ZM95.167 44.2891C95.167 44.7266 95.4359 45.2734 95.9736 45.9297L96.7803 45.3623C97.0902 45.1436 97.3021 44.9362 97.416 44.7402C97.5299 44.5397 97.5869 44.2982 97.5869 44.0156C97.5869 43.7103 97.473 43.4574 97.2451 43.2568C97.0173 43.0518 96.7301 42.9492 96.3838 42.9492C96.0101 42.9492 95.7139 43.0768 95.4951 43.332C95.2764 43.5827 95.167 43.9017 95.167 44.2891ZM105.735 52V42.0469H108.989C110.069 42.0469 110.881 42.2702 111.423 42.7168C111.97 43.1634 112.243 43.8242 112.243 44.6992C112.243 45.1641 112.111 45.5765 111.847 45.9365C111.582 46.292 111.222 46.5677 110.767 46.7637C111.304 46.9141 111.728 47.2012 112.038 47.625C112.353 48.0443 112.51 48.5456 112.51 49.1289C112.51 50.0221 112.22 50.724 111.642 51.2344C111.063 51.7448 110.245 52 109.188 52H105.735ZM107.048 47.3447V50.9268H109.215C109.826 50.9268 110.306 50.7695 110.657 50.4551C111.013 50.1361 111.19 49.6986 111.19 49.1426C111.19 47.944 110.539 47.3447 109.235 47.3447H107.048ZM107.048 46.292H109.03C109.604 46.292 110.062 46.1484 110.404 45.8613C110.751 45.5742 110.924 45.1846 110.924 44.6924C110.924 44.1455 110.764 43.749 110.445 43.5029C110.126 43.2523 109.641 43.127 108.989 43.127H107.048V46.292ZM113.925 48.2334C113.925 47.5088 114.066 46.8571 114.349 46.2783C114.636 45.6995 115.032 45.2529 115.538 44.9385C116.049 44.624 116.63 44.4668 117.281 44.4668C118.288 44.4668 119.102 44.8154 119.722 45.5127C120.346 46.21 120.658 47.1374 120.658 48.2949V48.3838C120.658 49.1038 120.519 49.751 120.241 50.3252C119.968 50.8949 119.574 51.3392 119.059 51.6582C118.548 51.9772 117.96 52.1367 117.295 52.1367C116.292 52.1367 115.479 51.7881 114.854 51.0908C114.235 50.3936 113.925 49.4707 113.925 48.3223V48.2334ZM115.196 48.3838C115.196 49.2041 115.385 49.8626 115.764 50.3594C116.146 50.8561 116.657 51.1045 117.295 51.1045C117.938 51.1045 118.448 50.8538 118.826 50.3525C119.204 49.8467 119.394 49.1403 119.394 48.2334C119.394 47.4222 119.2 46.766 118.812 46.2646C118.43 45.7588 117.919 45.5059 117.281 45.5059C116.657 45.5059 116.153 45.7542 115.771 46.251C115.388 46.7477 115.196 47.4587 115.196 48.3838ZM121.909 48.2334C121.909 47.5088 122.05 46.8571 122.333 46.2783C122.62 45.6995 123.017 45.2529 123.522 44.9385C124.033 44.624 124.614 44.4668 125.266 44.4668C126.273 44.4668 127.086 44.8154 127.706 45.5127C128.33 46.21 128.643 47.1374 128.643 48.2949V48.3838C128.643 49.1038 128.504 49.751 128.226 50.3252C127.952 50.8949 127.558 51.3392 127.043 51.6582C126.533 51.9772 125.945 52.1367 125.279 52.1367C124.277 52.1367 123.463 51.7881 122.839 51.0908C122.219 50.3936 121.909 49.4707 121.909 48.3223V48.2334ZM123.181 48.3838C123.181 49.2041 123.37 49.8626 123.748 50.3594C124.131 50.8561 124.641 51.1045 125.279 51.1045C125.922 51.1045 126.432 50.8538 126.811 50.3525C127.189 49.8467 127.378 49.1403 127.378 48.2334C127.378 47.4222 127.184 46.766 126.797 46.2646C126.414 45.7588 125.904 45.5059 125.266 45.5059C124.641 45.5059 124.138 45.7542 123.755 46.251C123.372 46.7477 123.181 47.4587 123.181 48.3838ZM132.293 48.5752L131.5 49.4023V52H130.235V41.5H131.5V47.8506L132.177 47.0371L134.48 44.6035H136.019L133.141 47.6934L136.354 52H134.87L132.293 48.5752ZM141.631 50.0381C141.631 49.6963 141.501 49.432 141.241 49.2451C140.986 49.0537 140.537 48.8896 139.895 48.7529C139.257 48.6162 138.748 48.4521 138.37 48.2607C137.996 48.0693 137.718 47.8415 137.536 47.5771C137.358 47.3128 137.27 46.9984 137.27 46.6338C137.27 46.0277 137.525 45.515 138.035 45.0957C138.55 44.6764 139.206 44.4668 140.004 44.4668C140.842 44.4668 141.521 44.6833 142.041 45.1162C142.565 45.5492 142.827 46.1029 142.827 46.7773H141.556C141.556 46.431 141.408 46.1325 141.111 45.8818C140.82 45.6312 140.451 45.5059 140.004 45.5059C139.544 45.5059 139.184 45.6061 138.924 45.8066C138.664 46.0072 138.534 46.2692 138.534 46.5928C138.534 46.8981 138.655 47.1283 138.896 47.2832C139.138 47.4382 139.573 47.5863 140.202 47.7275C140.836 47.8688 141.348 48.0374 141.74 48.2334C142.132 48.4294 142.422 48.6663 142.608 48.9443C142.8 49.2178 142.896 49.5527 142.896 49.9492C142.896 50.61 142.631 51.141 142.103 51.542C141.574 51.9385 140.888 52.1367 140.045 52.1367C139.452 52.1367 138.928 52.0319 138.473 51.8223C138.017 51.6126 137.659 51.321 137.399 50.9473C137.144 50.569 137.017 50.1611 137.017 49.7236H138.281C138.304 50.1475 138.473 50.4847 138.787 50.7354C139.106 50.9814 139.525 51.1045 140.045 51.1045C140.523 51.1045 140.906 51.0088 141.193 50.8174C141.485 50.6214 141.631 50.3617 141.631 50.0381Z" fill="#3E3939"/>
</svg>
